
<svg id="Layer_1" data-name="Layer 1" xmlns="http://www.w3.org/2000/svg" viewBox="0 0 595.28 160.26"><defs><style>.cls-1{fill:#6ebe48;}.cls-2{fill:#4d4b4c;}.cls-3{fill:#6fbf49;}</style></defs><title>logo</title><path d="M433.44,79c0,3,0,5.89,0,8.84a18.67,18.67,0,0,1-5.76,13.59A19.28,19.28,0,0,1,411.4,107a19.82,19.82,0,0,1-14.14-9.37l-.54-.9c-.08-.15-.3-.13-.41,0l-.33.57a20.36,20.36,0,0,1-11.8,9.16,16.31,16.31,0,0,1-4.28.71,19.32,19.32,0,0,1-19.72-14.47,17.84,17.84,0,0,1-.6-4.3c0-.27,0-.53,0-.79q0-9,0-17.95a9.21,9.21,0,0,1,0-1.05.35.35,0,0,1,.27-.23c1.09,0,2.19,0,3.29,0a.28.28,0,0,1,.27.24,11.63,11.63,0,0,1,0,1.18l0,16.49c0,.53,0,1.06,0,1.59a15.13,15.13,0,0,0,4.25,10.49,15.43,15.43,0,0,0,8.65,4.71A15.61,15.61,0,0,0,392,96.29a15.36,15.36,0,0,0,2.32-5.55,17.8,17.8,0,0,0,.31-3.41q0-8.64,0-17.29c0-.43,0-.87,0-1.31a.4.4,0,0,1,.4-.43h.52c2.42,0,2.82,0,2.85.14a14.14,14.14,0,0,1,.09,2.76c0,5.32,0,10.64,0,16a16.19,16.19,0,0,0,.34,3.67,15.64,15.64,0,0,0,8.37,10.76A14.82,14.82,0,0,0,416,103.1a15,15,0,0,0,8.05-3.64,15.63,15.63,0,0,0,5-7.9,12.66,12.66,0,0,0,.46-3c0-.62,0-1.23,0-1.85q0-8.64,0-17.28c0-1.25-.14-1.22,1.21-1.22H433c.32,0,.45.15.46.5s0,.71,0,1.06V79Z"/><path d="M481.27,96.18c0,3.16,0,6.33,0,9.49,0,.35,0,.71,0,1.06,0,.08-.18.24-.28.24l-3.16,0a.4.4,0,0,1-.39-.43c0-.35,0-.71,0-1.06,0-1.67,0-3.34,0-5,0-.21,0-.43-.06-.65a.16.16,0,0,0-.08-.08.35.35,0,0,0-.23,0,1.79,1.79,0,0,0-.28.27c-.15.17-.29.34-.44.5a19.75,19.75,0,0,1-9.79,5.89,19.14,19.14,0,0,1-6.4.52,18.75,18.75,0,0,1-5.87-1.41A19.05,19.05,0,0,1,443.09,93a17.91,17.91,0,0,1-.7-4.55,20.2,20.2,0,0,1,.79-6.51,19.11,19.11,0,0,1,14-13.23,19.39,19.39,0,0,1,6.67-.42,19.17,19.17,0,0,1,10.84,4.66,19.33,19.33,0,0,1,6.57,14.56c0,2.9,0,5.8,0,8.7Zm-3.94-8.57a15.54,15.54,0,1,0-15.55,15.52A15.66,15.66,0,0,0,477.33,87.61Z"/><path class="cls-1" d="M350.7,96.24v9.5a11.52,11.52,0,0,1-.05,1.18c0,.1-.16.19-.25.28s-.08,0-.12,0l-.39,0c-2.41.06-2.91,0-3-.17a10.64,10.64,0,0,1-.13-2.87c0-1.15,0-2.29,0-3.43a2.83,2.83,0,0,0-.09-.65.32.32,0,0,0-.22-.08,6.65,6.65,0,0,0-.66.64,20.41,20.41,0,0,1-4,3.41,19.27,19.27,0,0,1-7.43,2.92,18.13,18.13,0,0,1-5,.17,23,23,0,0,1-2.74-.43,19.32,19.32,0,0,1-14.84-18.93,19.53,19.53,0,0,1,4.56-12.64,18.11,18.11,0,0,1,4.81-4.07,18.52,18.52,0,0,1,6.63-2.46,20.52,20.52,0,0,1,5.91-.13,19.49,19.49,0,0,1,9.1,3.59,18.85,18.85,0,0,1,7,9.82,17.09,17.09,0,0,1,.84,5.06c0,.17,0,.35,0,.53,0,2.9,0,5.8,0,8.7Zm-4-8.47a15.52,15.52,0,1,0-15.45,15.61A15.66,15.66,0,0,0,346.73,87.77Z"/><path class="cls-1" d="M302.86,96.46v9.36c0,.4,0,.79,0,1.19a.39.39,0,0,1-.36.31l-3,0a.42.42,0,0,1-.43-.41c0-.43,0-.87,0-1.31l0-16.62c0-.53,0-1,0-1.58a14.2,14.2,0,0,0-1.72-6.57,15.66,15.66,0,0,0-8.62-7.56,15.36,15.36,0,0,0-15.89,3.46,15.23,15.23,0,0,0-4.65,9,18.17,18.17,0,0,0-.14,2.76q0,7.26,0,14.51v3.43a2.81,2.81,0,0,1-.05.65c0,.11-.15.19-.24.28a.25.25,0,0,1-.13,0h-3a.41.41,0,0,1-.43-.4c0-.39,0-.79,0-1.19q0-13.77,0-27.56c0-5-.05-10-.07-15,0-.44,0-.88,0-1.32a.39.39,0,0,1,.33-.35h3.16a.4.4,0,0,1,.34.34c0,.4,0,.79,0,1.19l0,11.08c0,.39,0,.79,0,1.18a.38.38,0,0,0,.14.34.31.31,0,0,0,.35-.09c.18-.2.36-.39.53-.59a20.32,20.32,0,0,1,5.23-4.18,17.8,17.8,0,0,1,7.38-2.23,22.27,22.27,0,0,1,3.56,0,16.13,16.13,0,0,1,4.86,1.1A20.1,20.1,0,0,1,302,82.44a15.94,15.94,0,0,1,.8,5.18v8.84Z"/><path d="M529.07,96c0,3.21,0,6.42,0,9.62a9.26,9.26,0,0,1-.07,1c0,.06-.1.12-.17.17a.25.25,0,0,1-.12,0c-1.06,0-2.11,0-3.17,0a.36.36,0,0,1-.32-.34c0-.44,0-.88,0-1.32l0-17.15a18,18,0,0,0-.37-3.8,15.36,15.36,0,0,0-4.45-7.93A15.31,15.31,0,0,0,501,74.65a15.54,15.54,0,0,0-6.76,10.86,14,14,0,0,0-.1,2.24q0,7.65,0,15.3c0,1.06,0,2.11,0,3.17a2.29,2.29,0,0,1-.05.52.29.29,0,0,1-.18.16,21.69,21.69,0,0,1-3.42,0,.28.28,0,0,1-.24-.27c0-.22,0-.44,0-.66,0-6.2,0-12.4,0-18.6A19.38,19.38,0,0,1,512,68.21a20,20,0,0,1,14.57,10,18.53,18.53,0,0,1,2.29,6.69,23.09,23.09,0,0,1,.15,2.76c0,2.77,0,5.54,0,8.32Z"/><path class="cls-1" d="M216.1,76.68V64c0-1.3,0-1.24,1.22-1.24h2.24a.41.41,0,0,1,.42.41c0,.4,0,.79,0,1.19q0,4.6,0,9.23c0,.7,0,1.4.06,2.11,0,.4.18.57.54.59l1.06,0,7.25,0c.4,0,.79,0,1.19,0a.43.43,0,0,1,.4.43c0,1,0,2,0,3a.4.4,0,0,1-.43.39l-1.19,0H221.5c-.35,0-.7,0-1.05,0-.12,0-.34.24-.35.36s0,.43,0,.65v3.3c0,1.23,0,2.46,0,3.69a15,15,0,0,0,3,8.84,15.22,15.22,0,0,0,10.18,6.25,14.88,14.88,0,0,0,10.49-2.17,15.66,15.66,0,0,0,7-9.69,10.9,10.9,0,0,0,.38-2.61,4.76,4.76,0,0,1,.06-.65c0-.15.16-.2.27-.25a.31.31,0,0,1,.13,0h3a.41.41,0,0,1,.42.41c0,.53,0,1.06-.05,1.58a19.72,19.72,0,0,1-16.64,17.31,9.32,9.32,0,0,1-1.05.1c-.79,0-1.58.06-2.37,0a18.49,18.49,0,0,1-11.44-4.13,19,19,0,0,1-7.12-12.37,22.53,22.53,0,0,1-.2-3.29c0-3.65,0-7.3,0-10.95Z"/><path d="M541.9,87.46v18.2c0,1.3.09,1.22-1.2,1.22h-2.24c-.3,0-.45-.18-.46-.51s0-.61,0-.92q0-18,0-36c0-.39,0-.79,0-1.18,0-.07.11-.13.18-.18a.23.23,0,0,1,.12,0c1.06,0,2.11,0,3.17,0a.38.38,0,0,1,.39.42c0,.4,0,.79,0,1.19v17.8Z"/><path class="cls-2" d="M539.93,64.91h-1.45c-.42,0-.54-.12-.54-.55,0-.92,0-1.85,0-2.77,0-.34,0-.59.52-.59l3,0a.38.38,0,0,1,.33.35c0,1,0,2.11,0,3.16a.42.42,0,0,1-.45.38h-1.45Z"/><path class="cls-3" d="M112.5,65.66A12.29,12.29,0,1,1,100.19,53.4,12.29,12.29,0,0,1,112.5,65.66Z"/><path class="cls-3" d="M145,65.6A12.29,12.29,0,1,1,132.7,53.33,12.28,12.28,0,0,1,145,65.6Z"/><path class="cls-3" d="M127.41,36.61a12.29,12.29,0,1,1-12.3-12.26A12.29,12.29,0,0,1,127.41,36.61Z"/><path class="cls-3" d="M116.06,114.71A41.39,41.39,0,0,1,74.57,73.38l-21.2,0a62.61,62.61,0,1,0,125.21-.23l-21.19,0A41.4,41.4,0,0,1,116.06,114.71Z"/></svg>
